<svg width="141" height="148" viewBox="0 0 141 148" fill="none" xmlns="http://www.w3.org/2000/svg">
<path d="M8.064 125V103.24H11.744V125H8.064ZM0.768 105.96V102.6H19.04V105.96H0.768ZM18.4833 125V109.64H22.0033V125H18.4833ZM22.0033 116.456L20.7873 115.848C20.7873 113.907 21.2139 112.339 22.0673 111.144C22.9419 109.928 24.2539 109.32 26.0033 109.32C26.7713 109.32 27.4646 109.459 28.0833 109.736C28.7019 110.013 29.2779 110.461 29.8113 111.08L27.5073 113.448C27.2299 113.149 26.9206 112.936 26.5793 112.808C26.2379 112.68 25.8433 112.616 25.3953 112.616C24.4139 112.616 23.6033 112.925 22.9633 113.544C22.3233 114.163 22.0033 115.133 22.0033 116.456ZM38.1818 125.32C36.6458 125.32 35.2591 124.979 34.0218 124.296C32.8058 123.592 31.8351 122.632 31.1098 121.416C30.4058 120.2 30.0538 118.835 30.0538 117.32C30.0538 115.805 30.4058 114.451 31.1098 113.256C31.8138 112.04 32.7631 111.08 33.9578 110.376C35.1738 109.672 36.5178 109.32 37.9898 109.32C39.4191 109.32 40.6778 109.651 41.7658 110.312C42.8751 110.973 43.7391 111.88 44.3578 113.032C44.9978 114.184 45.3178 115.496 45.3178 116.968C45.3178 117.224 45.2964 117.491 45.2537 117.768C45.2324 118.024 45.1898 118.312 45.1258 118.632H32.5178V115.752H43.3018L41.9898 116.904C41.9471 115.965 41.7658 115.176 41.4458 114.536C41.1258 113.896 40.6671 113.405 40.0698 113.064C39.4938 112.723 38.7791 112.552 37.9258 112.552C37.0298 112.552 36.2511 112.744 35.5898 113.128C34.9284 113.512 34.4164 114.056 34.0538 114.76C33.6911 115.443 33.5098 116.264 33.5098 117.224C33.5098 118.184 33.7018 119.027 34.0858 119.752C34.4698 120.477 35.0138 121.043 35.7178 121.448C36.4218 121.832 37.2324 122.024 38.1498 122.024C38.9391 122.024 39.6644 121.885 40.3258 121.608C41.0084 121.331 41.5844 120.925 42.0538 120.392L44.2938 122.664C43.5471 123.539 42.6404 124.2 41.5738 124.648C40.5071 125.096 39.3764 125.32 38.1818 125.32ZM54.5715 125.32C53.1848 125.32 51.9262 124.968 50.7955 124.264C49.6862 123.56 48.8008 122.611 48.1395 121.416C47.4995 120.2 47.1795 118.845 47.1795 117.352C47.1795 115.837 47.4995 114.483 48.1395 113.288C48.8008 112.072 49.6862 111.112 50.7955 110.408C51.9262 109.683 53.1848 109.32 54.5715 109.32C55.7448 109.32 56.7795 109.576 57.6755 110.088C58.5928 110.579 59.3182 111.261 59.8515 112.136C60.3848 113.011 60.6515 114.003 60.6515 115.112V119.528C60.6515 120.637 60.3848 121.629 59.8515 122.504C59.3395 123.379 58.6248 124.072 57.7075 124.584C56.7902 125.075 55.7448 125.32 54.5715 125.32ZM55.1475 121.992C56.4488 121.992 57.4942 121.555 58.2835 120.68C59.0942 119.805 59.4995 118.685 59.4995 117.32C59.4995 116.403 59.3182 115.592 58.9555 114.888C58.5928 114.184 58.0808 113.64 57.4195 113.256C56.7795 112.851 56.0222 112.648 55.1475 112.648C54.2942 112.648 53.5368 112.851 52.8755 113.256C52.2355 113.64 51.7235 114.184 51.3395 114.888C50.9768 115.592 50.7955 116.403 50.7955 117.32C50.7955 118.237 50.9768 119.048 51.3395 119.752C51.7235 120.456 52.2355 121.011 52.8755 121.416C53.5368 121.8 54.2942 121.992 55.1475 121.992ZM59.2755 125V120.872L59.8835 117.128L59.2755 113.416V109.64H62.7955V125H59.2755ZM69.39 125.32C68.7073 125.32 68.142 125.096 67.694 124.648C67.2673 124.179 67.054 123.613 67.054 122.952C67.054 122.269 67.2673 121.704 67.694 121.256C68.142 120.808 68.7073 120.584 69.39 120.584C70.0727 120.584 70.6273 120.808 71.054 121.256C71.502 121.704 71.726 122.269 71.726 122.952C71.726 123.613 71.502 124.179 71.054 124.648C70.6273 125.096 70.0727 125.32 69.39 125.32ZM81.0073 125.32C80.1539 125.32 79.3326 125.213 78.5433 125C77.7539 124.765 77.0286 124.445 76.3673 124.04C75.7059 123.613 75.1299 123.101 74.6393 122.504L76.8793 120.264C77.4126 120.883 78.0206 121.352 78.7033 121.672C79.4073 121.971 80.1966 122.12 81.0713 122.12C81.8606 122.12 82.4579 122.003 82.8633 121.768C83.2686 121.533 83.4713 121.192 83.4713 120.744C83.4713 120.275 83.2793 119.912 82.8953 119.656C82.5113 119.4 82.0099 119.187 81.3913 119.016C80.7939 118.824 80.1539 118.632 79.4713 118.44C78.8099 118.248 78.1699 117.992 77.5513 117.672C76.9539 117.331 76.4633 116.872 76.0793 116.296C75.6953 115.72 75.5033 114.973 75.5033 114.056C75.5033 113.075 75.7273 112.232 76.1753 111.528C76.6446 110.824 77.2953 110.28 78.1273 109.896C78.9806 109.512 79.9939 109.32 81.1673 109.32C82.4046 109.32 83.4926 109.544 84.4313 109.992C85.3913 110.419 86.1913 111.069 86.8313 111.944L84.5913 114.184C84.1433 113.629 83.6313 113.213 83.0553 112.936C82.4793 112.659 81.8179 112.52 81.0713 112.52C80.3673 112.52 79.8233 112.627 79.4393 112.84C79.0553 113.053 78.8633 113.363 78.8633 113.768C78.8633 114.195 79.0553 114.525 79.4393 114.76C79.8233 114.995 80.3139 115.197 80.9113 115.368C81.5299 115.539 82.1699 115.731 82.8313 115.944C83.5139 116.136 84.1539 116.413 84.7513 116.776C85.3699 117.117 85.8713 117.587 86.2553 118.184C86.6393 118.76 86.8313 119.517 86.8313 120.456C86.8313 121.949 86.3086 123.133 85.2633 124.008C84.2179 124.883 82.7993 125.32 81.0073 125.32ZM96.0373 125.32C94.7359 125.32 93.5733 125.032 92.5493 124.456C91.5466 123.88 90.7573 123.091 90.1813 122.088C89.6266 121.064 89.3493 119.891 89.3493 118.568V109.64H92.8693V118.408C92.8693 119.155 92.9866 119.795 93.2213 120.328C93.4773 120.84 93.8399 121.235 94.3093 121.512C94.7999 121.789 95.3759 121.928 96.0373 121.928C97.0613 121.928 97.8399 121.629 98.3733 121.032C98.9279 120.413 99.2053 119.539 99.2053 118.408V109.64H102.725V118.568C102.725 119.912 102.437 121.096 101.861 122.12C101.307 123.123 100.528 123.912 99.5253 124.488C98.5226 125.043 97.3599 125.32 96.0373 125.32ZM106.265 125V109.64H109.785V125H106.265ZM109.785 116.456L108.569 115.848C108.569 113.907 108.995 112.339 109.849 111.144C110.723 109.928 112.035 109.32 113.785 109.32C114.553 109.32 115.246 109.459 115.865 109.736C116.483 110.013 117.059 110.461 117.593 111.08L115.289 113.448C115.011 113.149 114.702 112.936 114.361 112.808C114.019 112.68 113.625 112.616 113.177 112.616C112.195 112.616 111.385 112.925 110.745 113.544C110.105 114.163 109.785 115.133 109.785 116.456ZM125.963 125.32C124.427 125.32 123.04 124.979 121.803 124.296C120.587 123.592 119.616 122.632 118.891 121.416C118.187 120.2 117.835 118.835 117.835 117.32C117.835 115.805 118.187 114.451 118.891 113.256C119.595 112.04 120.544 111.08 121.739 110.376C122.955 109.672 124.299 109.32 125.771 109.32C127.2 109.32 128.459 109.651 129.547 110.312C130.656 110.973 131.52 111.88 132.139 113.032C132.779 114.184 133.099 115.496 133.099 116.968C133.099 117.224 133.078 117.491 133.035 117.768C133.014 118.024 132.971 118.312 132.907 118.632H120.299V115.752H131.083L129.771 116.904C129.728 115.965 129.547 115.176 129.227 114.536C128.907 113.896 128.448 113.405 127.851 113.064C127.275 112.723 126.56 112.552 125.707 112.552C124.811 112.552 124.032 112.744 123.371 113.128C122.71 113.512 122.198 114.056 121.835 114.76C121.472 115.443 121.291 116.264 121.291 117.224C121.291 118.184 121.483 119.027 121.867 119.752C122.251 120.477 122.795 121.043 123.499 121.448C124.203 121.832 125.014 122.024 125.931 122.024C126.72 122.024 127.446 121.885 128.107 121.608C128.79 121.331 129.366 120.925 129.835 120.392L132.075 122.664C131.328 123.539 130.422 124.2 129.355 124.648C128.288 125.096 127.158 125.32 125.963 125.32Z" fill="#0E31AD"/>
<path d="M1.408 144V132.992H2.24L6.992 140.784H6.4L11.152 132.992H11.984V144H10.8V135.04L11.072 135.104L7.104 141.616H6.272L2.304 135.104L2.576 135.04V144H1.408ZM17.775 144.16C17.0603 144.16 16.4203 143.989 15.855 143.648C15.2897 143.296 14.8417 142.827 14.511 142.24C14.191 141.653 14.031 140.992 14.031 140.256C14.031 139.509 14.191 138.843 14.511 138.256C14.8417 137.659 15.2897 137.189 15.855 136.848C16.4203 136.496 17.055 136.32 17.759 136.32C18.335 136.32 18.847 136.437 19.295 136.672C19.7537 136.896 20.1217 137.216 20.399 137.632C20.687 138.037 20.863 138.512 20.927 139.056V141.408C20.863 141.952 20.687 142.432 20.399 142.848C20.1217 143.264 19.7537 143.589 19.295 143.824C18.847 144.048 18.3403 144.16 17.775 144.16ZM17.951 143.088C18.7297 143.088 19.3537 142.827 19.823 142.304C20.303 141.781 20.543 141.093 20.543 140.24C20.543 139.675 20.431 139.179 20.207 138.752C19.9937 138.315 19.6897 137.979 19.295 137.744C18.911 137.499 18.4577 137.376 17.935 137.376C17.4017 137.376 16.927 137.499 16.511 137.744C16.1057 137.989 15.7803 138.331 15.535 138.768C15.3003 139.195 15.183 139.685 15.183 140.24C15.183 140.795 15.3003 141.285 15.535 141.712C15.7803 142.139 16.111 142.475 16.527 142.72C16.943 142.965 17.4177 143.088 17.951 143.088ZM20.479 144V141.984L20.703 140.128L20.479 138.32V136.48H21.599V144H20.479ZM29.3424 144V139.584C29.3424 138.923 29.145 138.389 28.7504 137.984C28.3664 137.568 27.8544 137.36 27.2144 137.36C26.777 137.36 26.393 137.456 26.0624 137.648C25.7317 137.84 25.4704 138.101 25.2784 138.432C25.0864 138.763 24.9904 139.141 24.9904 139.568L24.4784 139.28C24.4784 138.715 24.6117 138.208 24.8784 137.76C25.145 137.312 25.5024 136.96 25.9504 136.704C26.409 136.448 26.9317 136.32 27.5184 136.32C28.0944 136.32 28.6064 136.459 29.0544 136.736C29.5024 137.013 29.849 137.387 30.0944 137.856C30.3504 138.325 30.4784 138.837 30.4784 139.392V144H29.3424ZM23.8704 144V136.48H24.9904V144H23.8704ZM35.8375 144.16C35.1228 144.16 34.4828 143.989 33.9175 143.648C33.3522 143.296 32.9042 142.827 32.5735 142.24C32.2535 141.653 32.0935 140.992 32.0935 140.256C32.0935 139.509 32.2535 138.843 32.5735 138.256C32.9042 137.659 33.3522 137.189 33.9175 136.848C34.4828 136.496 35.1175 136.32 35.8215 136.32C36.3975 136.32 36.9095 136.437 37.3575 136.672C37.8162 136.896 38.1842 137.216 38.4615 137.632C38.7495 138.037 38.9255 138.512 38.9895 139.056V141.408C38.9255 141.952 38.7495 142.432 38.4615 142.848C38.1842 143.264 37.8162 143.589 37.3575 143.824C36.9095 144.048 36.4028 144.16 35.8375 144.16ZM36.0135 143.088C36.7922 143.088 37.4162 142.827 37.8855 142.304C38.3655 141.781 38.6055 141.093 38.6055 140.24C38.6055 139.675 38.4935 139.179 38.2695 138.752C38.0562 138.315 37.7522 137.979 37.3575 137.744C36.9735 137.499 36.5202 137.376 35.9975 137.376C35.4642 137.376 34.9895 137.499 34.5735 137.744C34.1682 137.989 33.8428 138.331 33.5975 138.768C33.3628 139.195 33.2455 139.685 33.2455 140.24C33.2455 140.795 33.3628 141.285 33.5975 141.712C33.8428 142.139 34.1735 142.475 34.5895 142.72C35.0055 142.965 35.4802 143.088 36.0135 143.088ZM38.5415 144V141.984L38.7655 140.128L38.5415 138.32V136.48H39.6615V144H38.5415ZM45.0369 147.328C44.2795 147.328 43.6022 147.184 43.0049 146.896C42.4182 146.619 41.9435 146.224 41.5809 145.712L42.3169 144.976C42.6155 145.381 42.9942 145.696 43.4529 145.92C43.9115 146.144 44.4502 146.256 45.0689 146.256C45.9222 146.256 46.5995 146.027 47.1009 145.568C47.6129 145.109 47.8689 144.485 47.8689 143.696V141.824L48.0929 140.112L47.8689 138.416V136.48H48.9889V143.696C48.9889 144.421 48.8235 145.056 48.4929 145.6C48.1622 146.144 47.6982 146.565 47.1009 146.864C46.5142 147.173 45.8262 147.328 45.0369 147.328ZM45.1169 143.92C44.4235 143.92 43.7995 143.755 43.2449 143.424C42.6902 143.093 42.2529 142.64 41.9329 142.064C41.6129 141.488 41.4529 140.837 41.4529 140.112C41.4529 139.387 41.6075 138.741 41.9169 138.176C42.2369 137.6 42.6742 137.147 43.2289 136.816C43.7835 136.485 44.4075 136.32 45.1009 136.32C45.6875 136.32 46.2102 136.432 46.6689 136.656C47.1382 136.88 47.5115 137.2 47.7889 137.616C48.0769 138.021 48.2529 138.501 48.3169 139.056V141.184C48.2529 141.728 48.0769 142.208 47.7889 142.624C47.5009 143.029 47.1275 143.349 46.6689 143.584C46.2102 143.808 45.6929 143.92 45.1169 143.92ZM45.3249 142.848C45.8475 142.848 46.3009 142.736 46.6849 142.512C47.0795 142.288 47.3835 141.973 47.5969 141.568C47.8209 141.152 47.9329 140.667 47.9329 140.112C47.9329 139.568 47.8209 139.093 47.5969 138.688C47.3835 138.283 47.0795 137.963 46.6849 137.728C46.2902 137.493 45.8315 137.376 45.3089 137.376C44.7862 137.376 44.3169 137.493 43.9009 137.728C43.4955 137.963 43.1755 138.283 42.9409 138.688C42.7169 139.093 42.6049 139.568 42.6049 140.112C42.6049 140.645 42.7222 141.12 42.9569 141.536C43.1915 141.952 43.5115 142.277 43.9169 142.512C44.3222 142.736 44.7915 142.848 45.3249 142.848ZM54.7174 144.16C53.96 144.16 53.2827 143.989 52.6854 143.648C52.088 143.307 51.6134 142.837 51.2614 142.24C50.92 141.643 50.7494 140.971 50.7494 140.224C50.7494 139.488 50.92 138.827 51.2614 138.24C51.6027 137.643 52.0667 137.173 52.6534 136.832C53.24 136.491 53.896 136.32 54.6214 136.32C55.304 136.32 55.9067 136.475 56.4294 136.784C56.9627 137.093 57.3787 137.525 57.6774 138.08C57.9867 138.624 58.1414 139.253 58.1414 139.968C58.1414 140.053 58.136 140.155 58.1254 140.272C58.1147 140.379 58.0934 140.507 58.0614 140.656H51.5494V139.696H57.4534L57.0534 140.048C57.064 139.493 56.968 139.019 56.7654 138.624C56.5734 138.219 56.2907 137.909 55.9174 137.696C55.5547 137.472 55.112 137.36 54.5894 137.36C54.0454 137.36 53.5707 137.477 53.1654 137.712C52.76 137.947 52.44 138.277 52.2054 138.704C51.9814 139.12 51.8694 139.616 51.8694 140.192C51.8694 140.768 51.9867 141.275 52.2214 141.712C52.4667 142.149 52.8027 142.491 53.2294 142.736C53.6667 142.981 54.168 143.104 54.7334 143.104C55.192 143.104 55.6134 143.024 55.9974 142.864C56.3814 142.693 56.7067 142.443 56.9734 142.112L57.6934 142.848C57.3414 143.264 56.904 143.589 56.3814 143.824C55.8694 144.048 55.3147 144.16 54.7174 144.16ZM65.8043 144.032L62.5083 136.48H63.7403L66.3963 142.784H65.9323L68.7323 136.48H69.9803L66.4443 144.032H65.8043ZM63.7563 147.168L65.8203 142.896L66.4443 144.032L64.9883 147.168H63.7563ZM74.3878 144.16C73.6624 144.16 73.0011 143.984 72.4038 143.632C71.8171 143.28 71.3478 142.805 70.9958 142.208C70.6544 141.611 70.4838 140.944 70.4838 140.208C70.4838 139.483 70.6544 138.827 70.9958 138.24C71.3478 137.653 71.8171 137.189 72.4038 136.848C73.0011 136.496 73.6624 136.32 74.3878 136.32C75.1238 136.32 75.7851 136.491 76.3718 136.832C76.9584 137.173 77.4224 137.643 77.7638 138.24C78.1158 138.827 78.2917 139.483 78.2917 140.208C78.2917 140.955 78.1158 141.627 77.7638 142.224C77.4224 142.811 76.9584 143.28 76.3718 143.632C75.7851 143.984 75.1238 144.16 74.3878 144.16ZM74.3878 143.072C74.9211 143.072 75.3904 142.949 75.7958 142.704C76.2118 142.459 76.5371 142.117 76.7718 141.68C77.0171 141.243 77.1398 140.752 77.1398 140.208C77.1398 139.664 77.0171 139.184 76.7718 138.768C76.5371 138.341 76.2118 138.005 75.7958 137.76C75.3904 137.515 74.9211 137.392 74.3878 137.392C73.8651 137.392 73.3958 137.515 72.9798 137.76C72.5638 138.005 72.2384 138.341 72.0038 138.768C71.7691 139.184 71.6518 139.664 71.6518 140.208C71.6518 140.763 71.7691 141.259 72.0038 141.696C72.2384 142.123 72.5638 142.459 72.9798 142.704C73.3958 142.949 73.8651 143.072 74.3878 143.072ZM83.0495 144.16C82.4415 144.16 81.8975 144.021 81.4175 143.744C80.9375 143.456 80.5588 143.067 80.2815 142.576C80.0148 142.085 79.8815 141.509 79.8815 140.848V136.48H81.0175V140.8C81.0175 141.259 81.0975 141.659 81.2575 142C81.4282 142.341 81.6682 142.608 81.9775 142.8C82.2868 142.992 82.6442 143.088 83.0495 143.088C83.6788 143.088 84.1748 142.88 84.5375 142.464C84.9108 142.048 85.0975 141.493 85.0975 140.8V136.48H86.2175V140.848C86.2175 141.499 86.0842 142.075 85.8175 142.576C85.5508 143.077 85.1775 143.467 84.6975 143.744C84.2175 144.021 83.6682 144.16 83.0495 144.16ZM88.3079 144V136.48H89.4279V144H88.3079ZM89.4279 139.616L88.9639 139.408C88.9639 138.459 89.1932 137.707 89.6519 137.152C90.1212 136.597 90.7612 136.32 91.5719 136.32C91.9452 136.32 92.2865 136.389 92.5959 136.528C92.9052 136.656 93.1932 136.864 93.4599 137.152L92.7239 137.936C92.5425 137.733 92.3399 137.589 92.1159 137.504C91.9025 137.419 91.6572 137.376 91.3799 137.376C90.8039 137.376 90.3345 137.568 89.9719 137.952C89.6092 138.325 89.4279 138.88 89.4279 139.616ZM101.634 144.16C100.92 144.16 100.28 143.989 99.7144 143.648C99.149 143.296 98.701 142.827 98.3704 142.24C98.0504 141.653 97.8904 140.992 97.8904 140.256C97.8904 139.509 98.0504 138.843 98.3704 138.256C98.701 137.659 99.149 137.189 99.7144 136.848C100.28 136.496 100.914 136.32 101.618 136.32C102.194 136.32 102.706 136.437 103.154 136.672C103.613 136.896 103.981 137.216 104.258 137.632C104.546 138.037 104.722 138.512 104.786 139.056V141.408C104.722 141.952 104.546 142.432 104.258 142.848C103.981 143.264 103.613 143.589 103.154 143.824C102.706 144.048 102.2 144.16 101.634 144.16ZM101.81 143.088C102.589 143.088 103.213 142.827 103.682 142.304C104.162 141.781 104.402 141.093 104.402 140.24C104.402 139.675 104.29 139.179 104.066 138.752C103.853 138.315 103.549 137.979 103.154 137.744C102.77 137.499 102.317 137.376 101.794 137.376C101.261 137.376 100.786 137.499 100.37 137.744C99.965 137.989 99.6397 138.331 99.3944 138.768C99.1597 139.195 99.0424 139.685 99.0424 140.24C99.0424 140.795 99.1597 141.285 99.3944 141.712C99.6397 142.139 99.9704 142.475 100.386 142.72C100.802 142.965 101.277 143.088 101.81 143.088ZM104.338 144V141.984L104.562 140.128L104.338 138.32V136.48H105.458V144H104.338ZM110.034 144.16C109.628 144.16 109.239 144.107 108.866 144C108.492 143.883 108.151 143.723 107.842 143.52C107.543 143.317 107.282 143.077 107.058 142.8L107.778 142.064C108.076 142.427 108.412 142.699 108.786 142.88C109.17 143.051 109.596 143.136 110.066 143.136C110.567 143.136 110.956 143.04 111.234 142.848C111.522 142.656 111.666 142.389 111.666 142.048C111.666 141.728 111.564 141.477 111.362 141.296C111.159 141.115 110.898 140.971 110.578 140.864C110.268 140.757 109.938 140.656 109.586 140.56C109.234 140.453 108.898 140.325 108.578 140.176C108.258 140.016 107.996 139.797 107.794 139.52C107.602 139.243 107.506 138.88 107.506 138.432C107.506 138.005 107.607 137.637 107.81 137.328C108.023 137.008 108.322 136.763 108.706 136.592C109.1 136.411 109.564 136.32 110.098 136.32C110.663 136.32 111.175 136.421 111.634 136.624C112.092 136.827 112.46 137.125 112.738 137.52L112.018 138.24C111.794 137.952 111.511 137.733 111.17 137.584C110.839 137.424 110.466 137.344 110.05 137.344C109.57 137.344 109.202 137.44 108.946 137.632C108.7 137.813 108.578 138.053 108.578 138.352C108.578 138.64 108.679 138.869 108.882 139.04C109.084 139.2 109.34 139.333 109.65 139.44C109.97 139.536 110.306 139.637 110.658 139.744C111.01 139.84 111.346 139.973 111.666 140.144C111.986 140.304 112.242 140.528 112.434 140.816C112.636 141.093 112.738 141.472 112.738 141.952C112.738 142.624 112.492 143.163 112.002 143.568C111.522 143.963 110.866 144.16 110.034 144.16ZM116.815 144.16C116.41 144.16 116.02 144.107 115.647 144C115.274 143.883 114.932 143.723 114.623 143.52C114.324 143.317 114.063 143.077 113.839 142.8L114.559 142.064C114.858 142.427 115.194 142.699 115.567 142.88C115.951 143.051 116.378 143.136 116.847 143.136C117.348 143.136 117.738 143.04 118.015 142.848C118.303 142.656 118.447 142.389 118.447 142.048C118.447 141.728 118.346 141.477 118.143 141.296C117.94 141.115 117.679 140.971 117.359 140.864C117.05 140.757 116.719 140.656 116.367 140.56C116.015 140.453 115.679 140.325 115.359 140.176C115.039 140.016 114.778 139.797 114.575 139.52C114.383 139.243 114.287 138.88 114.287 138.432C114.287 138.005 114.388 137.637 114.591 137.328C114.804 137.008 115.103 136.763 115.487 136.592C115.882 136.411 116.346 136.32 116.879 136.32C117.444 136.32 117.956 136.421 118.415 136.624C118.874 136.827 119.242 137.125 119.519 137.52L118.799 138.24C118.575 137.952 118.292 137.733 117.951 137.584C117.62 137.424 117.247 137.344 116.831 137.344C116.351 137.344 115.983 137.44 115.727 137.632C115.482 137.813 115.359 138.053 115.359 138.352C115.359 138.64 115.46 138.869 115.663 139.04C115.866 139.2 116.122 139.333 116.431 139.44C116.751 139.536 117.087 139.637 117.439 139.744C117.791 139.84 118.127 139.973 118.447 140.144C118.767 140.304 119.023 140.528 119.215 140.816C119.418 141.093 119.519 141.472 119.519 141.952C119.519 142.624 119.274 143.163 118.783 143.568C118.303 143.963 117.647 144.16 116.815 144.16ZM124.764 144.16C124.007 144.16 123.33 143.989 122.732 143.648C122.135 143.307 121.66 142.837 121.308 142.24C120.967 141.643 120.796 140.971 120.796 140.224C120.796 139.488 120.967 138.827 121.308 138.24C121.65 137.643 122.114 137.173 122.7 136.832C123.287 136.491 123.943 136.32 124.668 136.32C125.351 136.32 125.954 136.475 126.476 136.784C127.01 137.093 127.426 137.525 127.724 138.08C128.034 138.624 128.188 139.253 128.188 139.968C128.188 140.053 128.183 140.155 128.172 140.272C128.162 140.379 128.14 140.507 128.108 140.656H121.596V139.696H127.5L127.1 140.048C127.111 139.493 127.015 139.019 126.812 138.624C126.62 138.219 126.338 137.909 125.964 137.696C125.602 137.472 125.159 137.36 124.636 137.36C124.092 137.36 123.618 137.477 123.212 137.712C122.807 137.947 122.487 138.277 122.252 138.704C122.028 139.12 121.916 139.616 121.916 140.192C121.916 140.768 122.034 141.275 122.268 141.712C122.514 142.149 122.85 142.491 123.276 142.736C123.714 142.981 124.215 143.104 124.78 143.104C125.239 143.104 125.66 143.024 126.044 142.864C126.428 142.693 126.754 142.443 127.02 142.112L127.74 142.848C127.388 143.264 126.951 143.589 126.428 143.824C125.916 144.048 125.362 144.16 124.764 144.16ZM130.788 144V133.312H131.908V144H130.788ZM128.884 137.488V136.48H133.796V137.488H128.884ZM137.487 144.16C137.082 144.16 136.692 144.107 136.319 144C135.946 143.883 135.604 143.723 135.295 143.52C134.996 143.317 134.735 143.077 134.511 142.8L135.231 142.064C135.53 142.427 135.866 142.699 136.239 142.88C136.623 143.051 137.05 143.136 137.519 143.136C138.02 143.136 138.41 143.04 138.687 142.848C138.975 142.656 139.119 142.389 139.119 142.048C139.119 141.728 139.018 141.477 138.815 141.296C138.612 141.115 138.351 140.971 138.031 140.864C137.722 140.757 137.391 140.656 137.039 140.56C136.687 140.453 136.351 140.325 136.031 140.176C135.711 140.016 135.45 139.797 135.247 139.52C135.055 139.243 134.959 138.88 134.959 138.432C134.959 138.005 135.06 137.637 135.263 137.328C135.476 137.008 135.775 136.763 136.159 136.592C136.554 136.411 137.018 136.32 137.551 136.32C138.116 136.32 138.628 136.421 139.087 136.624C139.546 136.827 139.914 137.125 140.191 137.52L139.471 138.24C139.247 137.952 138.964 137.733 138.623 137.584C138.292 137.424 137.919 137.344 137.503 137.344C137.023 137.344 136.655 137.44 136.399 137.632C136.154 137.813 136.031 138.053 136.031 138.352C136.031 138.64 136.132 138.869 136.335 139.04C136.538 139.2 136.794 139.333 137.103 139.44C137.423 139.536 137.759 139.637 138.111 139.744C138.463 139.84 138.799 139.973 139.119 140.144C139.439 140.304 139.695 140.528 139.887 140.816C140.09 141.093 140.191 141.472 140.191 141.952C140.191 142.624 139.946 143.163 139.455 143.568C138.975 143.963 138.319 144.16 137.487 144.16Z" fill="#0E31AD"/>
<g clip-path="url(#clip0_101_28)">
<path fill-rule="evenodd" clip-rule="evenodd" d="M68 7.73L57 0L57.4782 40.7544L62.6603 49.73H57.5835L58 85.23L69 92.23L68.2249 26.73H61.3397L68.0866 15.0442L68 7.73ZM41 21.73L52 27.23V38.1941L45.3397 49.73H52V71.73L41 65.23V21.73ZM72 66.71V26.73H78.6603L75.8051 21.7848L83 25.67V73.73L72 66.71Z" fill="#0E31AD"/>
</g>
<defs>
<clipPath id="clip0_101_28">
<rect width="42" height="93" fill="white" transform="translate(41)"/>
</clipPath>
</defs>
</svg>
